<?xml version="1.0" encoding="utf-8" standalone="no"?>
<!DOCTYPE svg PUBLIC "-//W3C//DTD SVG 1.1//EN"
  "http://www.w3.org/Graphics/SVG/1.1/DTD/svg11.dtd">
<!-- Created with matplotlib (https://matplotlib.org/) -->
<svg height="288pt" version="1.1" viewBox="0 0 432 288" width="432pt" xmlns="http://www.w3.org/2000/svg" xmlns:xlink="http://www.w3.org/1999/xlink">
 <metadata>
  <rdf:RDF xmlns:cc="http://creativecommons.org/ns#" xmlns:dc="http://purl.org/dc/elements/1.1/" xmlns:rdf="http://www.w3.org/1999/02/22-rdf-syntax-ns#">
   <cc:Work>
    <dc:type rdf:resource="http://purl.org/dc/dcmitype/StillImage"/>
    <dc:date>2021-05-24T20:06:32.563952</dc:date>
    <dc:format>image/svg+xml</dc:format>
    <dc:creator>
     <cc:Agent>
      <dc:title>Matplotlib v3.3.4, https://matplotlib.org/</dc:title>
     </cc:Agent>
    </dc:creator>
   </cc:Work>
  </rdf:RDF>
 </metadata>
 <defs>
  <style type="text/css">*{stroke-linecap:butt;stroke-linejoin:round;}</style>
 </defs>
 <g id="figure_1">
  <g id="patch_1">
   <path d="M 0 288 
L 432 288 
L 432 0 
L 0 0 
z
" style="fill:none;"/>
  </g>
  <g id="axes_1">
   <g id="patch_2">
    <path d="M 47.8 246.2 
L 346.52 246.2 
L 346.52 14.8 
L 47.8 14.8 
z
" style="fill:none;"/>
   </g>
   <g id="PathCollection_1">
    <path clip-path="url(#p57cb41fa39)" d="M 240.622038 222.437767 
L 246.442907 221.842105 
L 255.454502 220.11545 
L 262.354059 209.663158 
L 260.797339 197.484211 
L 255.454502 191.871542 
L 240.622038 190.766003 
L 236.257386 197.484211 
L 235.07602 209.663158 
L 240.141235 221.842105 
z
" style="fill:#36459c;"/>
   </g>
   <g id="PathCollection_2">
    <path clip-path="url(#p57cb41fa39)" d="M 240.622038 229.014905 
L 255.454502 226.45143 
L 260.628924 221.842105 
L 270.286967 209.843535 
L 270.449057 209.663158 
L 270.629846 197.484211 
L 270.286967 196.898062 
L 259.587077 185.305263 
L 255.454502 181.403803 
L 240.622038 181.974665 
L 238.314274 185.305263 
L 230.464135 197.484211 
L 229.530003 209.663158 
L 234.832346 221.842105 
z
M 240.141235 221.842105 
L 235.07602 209.663158 
L 236.257386 197.484211 
L 240.622038 190.766003 
L 255.454502 191.871542 
L 260.797339 197.484211 
L 262.354059 209.663158 
L 255.454502 220.11545 
L 246.442907 221.842105 
L 240.622038 222.437767 
z
" style="fill:#3f62ab;"/>
   </g>
   <g id="PathCollection_3">
    <path clip-path="url(#p57cb41fa39)" d="M 240.622038 234.021053 
L 246.065506 234.021053 
L 255.454502 231.812416 
L 266.647159 221.842105 
L 270.286967 217.320227 
L 277.167783 209.663158 
L 277.641761 197.484211 
L 270.484148 185.305263 
L 270.286967 184.67263 
L 259.266578 173.126316 
L 255.454502 170.476539 
L 242.48295 173.126316 
L 240.622038 173.382102 
L 232.360505 185.305263 
L 225.789573 195.670628 
L 225.789573 197.484211 
L 225.789573 209.663158 
L 225.789573 213.516856 
L 229.523456 221.842105 
L 236.861807 230.933524 
z
M 234.832346 221.842105 
L 229.530003 209.663158 
L 230.464135 197.484211 
L 238.314274 185.305263 
L 240.622038 181.974665 
L 255.454502 181.403803 
L 259.587077 185.305263 
L 270.286967 196.898062 
L 270.629846 197.484211 
L 270.449057 209.663158 
L 270.286967 209.843535 
L 260.628924 221.842105 
L 255.454502 226.45143 
L 240.622038 229.014905 
z
" style="fill:#4d7fb9;"/>
    <path clip-path="url(#p57cb41fa39)" d="M 107.129858 90.848357 
L 110.355946 87.873684 
L 107.129858 85.326995 
L 106.090013 87.873684 
z
" style="fill:#4d7fb9;"/>
   </g>
   <g id="PathCollection_4">
    <path clip-path="url(#p57cb41fa39)" d="M 229.523456 221.842105 
L 225.789573 213.516856 
L 225.789573 221.842105 
L 236.861807 230.933524 
z
" style="fill:#6399c7;"/>
    <path clip-path="url(#p57cb41fa39)" d="M 255.454502 234.021053 
L 270.286967 221.842105 
L 280.416135 213.525038 
L 283.886508 209.663158 
L 284.653675 197.484211 
L 276.483483 185.305263 
L 272.936749 173.126316 
L 270.286967 168.494224 
L 259.610642 160.947368 
L 255.454502 158.410875 
L 243.626539 160.947368 
L 240.622038 161.706157 
L 235.267943 173.126316 
L 226.406735 185.305263 
L 225.789573 186.27881 
L 225.789573 195.670628 
L 232.360505 185.305263 
L 240.622038 173.382102 
L 242.48295 173.126316 
L 255.454502 170.476539 
L 259.266578 173.126316 
L 270.286967 184.67263 
L 270.484148 185.305263 
L 277.641761 197.484211 
L 277.167783 209.663158 
L 270.286967 217.320227 
L 266.647159 221.842105 
L 255.454502 231.812416 
L 246.065506 234.021053 
z
" style="fill:#6399c7;"/>
    <path clip-path="url(#p57cb41fa39)" d="M 107.129858 104.227294 
L 119.793654 101.833327 
L 121.962322 100.052632 
L 122.716778 100.052632 
L 124.367486 87.873684 
L 121.962322 80.159076 
L 116.307508 75.694737 
L 107.129858 67.597742 
L 104.292942 75.694737 
L 99.191934 87.873684 
L 103.083298 100.052632 
z
M 106.090013 87.873684 
L 107.129858 85.326995 
L 110.355946 87.873684 
L 107.129858 90.848357 
z
" style="fill:#6399c7;"/>
   </g>
   <g id="PathCollection_5">
    <path clip-path="url(#p57cb41fa39)" d="M 280.416135 213.525038 
L 285.119431 209.663158 
L 288.464145 206.916811 
L 288.823975 197.484211 
L 285.119431 189.203457 
L 282.482817 185.305263 
L 279.559006 173.126316 
L 272.696234 160.947368 
L 270.286967 158.204531 
L 255.878616 148.768421 
L 255.454502 148.567118 
L 240.622038 148.221456 
L 240.043147 148.768421 
L 235.121221 160.947368 
L 229.749577 173.126316 
L 225.789573 178.541409 
L 225.789573 185.305263 
L 225.789573 186.27881 
L 226.406735 185.305263 
L 235.267943 173.126316 
L 240.622038 161.706157 
L 243.626539 160.947368 
L 255.454502 158.410875 
L 259.610642 160.947368 
L 270.286967 168.494224 
L 272.936749 173.126316 
L 276.483483 185.305263 
L 284.653675 197.484211 
L 283.886508 209.663158 
z
" style="fill:#7ab2d4;"/>
    <path clip-path="url(#p57cb41fa39)" d="M 107.129858 112.05138 
L 107.414956 111.997484 
L 119.793654 101.833327 
L 107.129858 104.227294 
L 103.083298 100.052632 
L 99.191934 87.873684 
L 104.292942 75.694737 
L 107.129858 67.597742 
L 116.307508 75.694737 
L 121.962322 80.159076 
L 124.367486 87.873684 
L 122.716778 100.052632 
L 127.023187 100.052632 
L 129.622679 87.873684 
L 125.936051 75.694737 
L 121.962322 67.888236 
L 116.851775 63.515789 
L 107.129858 56.298545 
L 100.488676 63.515789 
L 97.693094 75.694737 
L 92.297393 87.866049 
L 92.297393 87.873684 
L 92.297393 87.888461 
L 95.499302 100.052632 
z
" style="fill:#7ab2d4;"/>
   </g>
   <g id="PathCollection_6">
    <path clip-path="url(#p57cb41fa39)" d="M 288.464145 206.916811 
L 292.560578 203.553227 
L 292.792095 197.484211 
L 286.892937 185.305263 
L 285.693578 173.126316 
L 285.119431 171.08192 
L 279.617788 160.947368 
L 270.286967 150.324667 
L 267.910676 148.768421 
L 255.454502 142.856182 
L 240.622038 142.094376 
L 233.558431 148.768421 
L 229.241359 160.947368 
L 225.789573 169.170607 
L 225.789573 173.126316 
L 225.789573 178.541409 
L 229.749577 173.126316 
L 235.121221 160.947368 
L 240.043147 148.768421 
L 240.622038 148.221456 
L 255.454502 148.567118 
L 255.878616 148.768421 
L 270.286967 158.204531 
L 272.696234 160.947368 
L 279.559006 173.126316 
L 282.482817 185.305263 
L 285.119431 189.203457 
L 288.823975 197.484211 
z
" style="fill:#97c9e0;"/>
    <path clip-path="url(#p57cb41fa39)" d="M 107.129858 112.231579 
L 107.414956 111.997484 
L 107.129858 112.05138 
L 95.499302 100.052632 
L 92.297393 87.888461 
L 92.297393 100.052632 
z
" style="fill:#97c9e0;"/>
    <path clip-path="url(#p57cb41fa39)" d="M 134.877871 87.873684 
L 131.341378 75.694737 
L 124.603364 63.515789 
L 121.962322 58.477958 
L 112.41435 51.336842 
L 107.129858 51.336842 
L 103.716672 51.336842 
L 92.297393 63.254357 
L 92.297393 63.515789 
L 92.297393 75.694737 
L 92.297393 87.866049 
L 97.693094 75.694737 
L 100.488676 63.515789 
L 107.129858 56.298545 
L 116.851775 63.515789 
L 121.962322 67.888236 
L 125.936051 75.694737 
L 129.622679 87.873684 
L 127.023187 100.052632 
L 131.329597 100.052632 
z
" style="fill:#97c9e0;"/>
   </g>
   <g id="PathCollection_7">
    <path clip-path="url(#p57cb41fa39)" d="M 292.560578 203.553227 
L 296.65701 200.189644 
L 296.760215 197.484211 
L 290.056999 185.305263 
L 289.274325 173.126316 
L 285.841683 160.947368 
L 285.119431 159.614887 
L 275.101395 148.768421 
L 270.286967 145.13483 
L 255.454502 137.145246 
L 248.195957 136.589474 
L 240.622038 135.779394 
L 239.915283 136.589474 
L 227.073715 148.768421 
L 225.789573 152.715804 
L 225.789573 160.947368 
L 225.789573 169.170607 
L 229.241359 160.947368 
L 233.558431 148.768421 
L 240.622038 142.094376 
L 255.454502 142.856182 
L 267.910676 148.768421 
L 270.286967 150.324667 
L 279.617788 160.947368 
L 285.119431 171.08192 
L 285.693578 173.126316 
L 286.892937 185.305263 
L 292.792095 197.484211 
z
" style="fill:#b0dcea;"/>
    <path clip-path="url(#p57cb41fa39)" d="M 136.794787 96.428744 
L 140.096426 87.873684 
L 136.794787 75.862926 
L 136.746705 75.694737 
L 129.093101 63.515789 
L 122.590013 51.336842 
L 121.962322 51.336842 
L 112.41435 51.336842 
L 121.962322 58.477958 
L 124.603364 63.515789 
L 131.341378 75.694737 
L 134.877871 87.873684 
L 131.329597 100.052632 
L 135.636007 100.052632 
z
" style="fill:#b0dcea;"/>
    <path clip-path="url(#p57cb41fa39)" d="M 103.716672 51.336842 
L 96.320773 51.336842 
L 92.297393 55.535766 
L 92.297393 63.254357 
z
" style="fill:#b0dcea;"/>
   </g>
   <g id="PathCollection_8">
    <path clip-path="url(#p57cb41fa39)" d="M 296.65701 200.189644 
L 299.951896 197.484211 
L 300.281389 197.213663 
L 299.951896 196.458338 
L 293.221061 185.305263 
L 292.855072 173.126316 
L 289.362399 160.947368 
L 285.119431 153.119522 
L 281.100658 148.768421 
L 270.286967 140.60701 
L 262.934467 136.589474 
L 255.454502 130.437697 
L 240.622038 127.801896 
L 232.955306 136.589474 
L 225.789573 143.435632 
L 225.789573 148.768421 
L 225.789573 152.715804 
L 227.073715 148.768421 
L 239.915283 136.589474 
L 240.622038 135.779394 
L 248.195957 136.589474 
L 255.454502 137.145246 
L 270.286967 145.13483 
L 275.101395 148.768421 
L 285.119431 159.614887 
L 285.841683 160.947368 
L 289.274325 173.126316 
L 290.056999 185.305263 
L 296.760215 197.484211 
z
" style="fill:#c9e8f2;"/>
    <path clip-path="url(#p57cb41fa39)" d="M 140.029208 100.052632 
L 145.293942 87.873684 
L 141.430813 75.694737 
L 136.794787 68.621434 
L 133.582837 63.515789 
L 126.367385 51.336842 
L 122.590013 51.336842 
L 129.093101 63.515789 
L 136.746705 75.694737 
L 136.794787 75.862926 
L 140.096426 87.873684 
L 136.794787 96.428744 
L 135.636007 100.052632 
L 136.794787 100.052632 
L 138.315826 101.301558 
z
" style="fill:#c9e8f2;"/>
    <path clip-path="url(#p57cb41fa39)" d="M 96.320773 51.336842 
L 92.297393 51.336842 
L 92.297393 55.535766 
z
" style="fill:#c9e8f2;"/>
   </g>
   <g id="PathCollection_9">
    <path clip-path="url(#p57cb41fa39)" d="M 299.951896 196.458338 
L 300.281389 197.213663 
L 301.965317 195.830989 
L 299.951896 191.215448 
L 296.385123 185.305263 
L 296.435819 173.126316 
L 292.883115 160.947368 
L 286.324106 148.768421 
L 285.119431 147.351745 
L 270.924844 136.589474 
L 270.286967 135.804943 
L 256.432943 124.410526 
L 255.454502 122.47147 
L 240.622038 118.099657 
L 236.33571 124.410526 
L 225.995329 136.589474 
L 225.789573 136.786053 
L 225.789573 143.435632 
L 232.955306 136.589474 
L 240.622038 127.801896 
L 255.454502 130.437697 
L 262.934467 136.589474 
L 270.286967 140.60701 
L 281.100658 148.768421 
L 285.119431 153.119522 
L 289.362399 160.947368 
L 292.855072 173.126316 
L 293.221061 185.305263 
z
" style="fill:#e1f3f6;"/>
    <path clip-path="url(#p57cb41fa39)" d="M 144.45436 100.052632 
L 150.491458 87.873684 
L 146.108449 75.694737 
L 137.965788 63.515789 
L 136.794787 61.820927 
L 130.144757 51.336842 
L 126.367385 51.336842 
L 133.582837 63.515789 
L 136.794787 68.621434 
L 141.430813 75.694737 
L 145.293942 87.873684 
L 140.029208 100.052632 
L 138.315826 101.301558 
L 140.396825 103.010268 
z
" style="fill:#e1f3f6;"/>
   </g>
   <g id="PathCollection_10">
    <path clip-path="url(#p57cb41fa39)" d="M 299.951896 191.215448 
L 301.965317 195.830989 
L 303.649244 194.448315 
L 299.951896 185.972559 
L 299.549185 185.305263 
L 299.951896 174.639758 
L 299.993014 173.126316 
L 299.951896 172.911895 
L 296.403831 160.947368 
L 289.973285 148.768421 
L 285.119431 143.060377 
L 276.584821 136.589474 
L 270.286967 128.843688 
L 264.896859 124.410526 
L 260.887969 112.231579 
L 255.454502 104.228927 
L 240.622038 106.400436 
L 237.653071 112.231579 
L 228.879711 124.410526 
L 225.789573 128.055273 
L 225.789573 136.589474 
L 225.789573 136.786053 
L 225.995329 136.589474 
L 236.33571 124.410526 
L 240.622038 118.099657 
L 255.454502 122.47147 
L 256.432943 124.410526 
L 270.286967 135.804943 
L 270.924844 136.589474 
L 285.119431 147.351745 
L 286.324106 148.768421 
L 292.883115 160.947368 
L 296.435819 173.126316 
L 296.385123 185.305263 
z
" style="fill:#f0f9db;"/>
    <path clip-path="url(#p57cb41fa39)" d="M 148.879512 100.052632 
L 151.627251 94.660234 
L 158.033351 87.873684 
L 151.627251 77.97301 
L 150.786085 75.694737 
L 142.080311 63.515789 
L 136.794787 55.865722 
L 133.922129 51.336842 
L 130.144757 51.336842 
L 136.794787 61.820927 
L 137.965788 63.515789 
L 146.108449 75.694737 
L 150.491458 87.873684 
L 144.45436 100.052632 
L 140.396825 103.010268 
L 142.477825 104.718978 
z
" style="fill:#f0f9db;"/>
   </g>
   <g id="PathCollection_11">
    <path clip-path="url(#p57cb41fa39)" d="M 299.951896 185.972559 
L 303.649244 194.448315 
L 305.333172 193.06564 
L 301.94789 185.305263 
L 302.269699 173.126316 
L 299.951896 161.039591 
L 299.924547 160.947368 
L 293.622463 148.768421 
L 285.119431 138.769008 
L 282.244797 136.589474 
L 272.413734 124.410526 
L 272.175794 112.231579 
L 270.286967 105.382753 
L 266.702929 100.052632 
L 265.058391 87.873684 
L 259.244028 75.694737 
L 255.454502 73.32696 
L 249.723828 75.694737 
L 240.622038 87.168526 
L 240.488479 87.873684 
L 237.801447 100.052632 
L 231.274405 112.231579 
L 225.789573 119.476751 
L 224.298653 123.186331 
L 225.789573 124.410526 
L 225.789573 128.055273 
L 228.879711 124.410526 
L 237.653071 112.231579 
L 240.622038 106.400436 
L 255.454502 104.228927 
L 260.887969 112.231579 
L 264.896859 124.410526 
L 270.286967 128.843688 
L 276.584821 136.589474 
L 285.119431 143.060377 
L 289.973285 148.768421 
L 296.403831 160.947368 
L 299.951896 172.911895 
L 299.993014 173.126316 
L 299.951896 174.639758 
L 299.549185 185.305263 
z
" style="fill:#fffebe;"/>
    <path clip-path="url(#p57cb41fa39)" d="M 151.627251 101.275339 
L 155.180587 100.052632 
L 166.230809 87.873684 
L 158.164755 75.694737 
L 151.627251 71.028092 
L 146.194834 63.515789 
L 137.586827 51.336842 
L 136.794787 51.336842 
L 133.922129 51.336842 
L 136.794787 55.865722 
L 142.080311 63.515789 
L 150.786085 75.694737 
L 151.627251 77.97301 
L 158.033351 87.873684 
L 151.627251 94.660234 
L 148.879512 100.052632 
L 142.477825 104.718978 
L 144.558824 106.427689 
z
" style="fill:#fffebe;"/>
   </g>
   <g id="PathCollection_12">
    <path clip-path="url(#p57cb41fa39)" d="M 305.333172 193.06564 
L 307.0171 191.682966 
L 304.234977 185.305263 
L 304.546384 173.126316 
L 302.21558 160.947368 
L 299.951896 153.948904 
L 297.271642 148.768421 
L 286.789864 136.589474 
L 285.119431 132.982754 
L 278.269916 124.410526 
L 277.966429 112.231579 
L 275.040491 100.052632 
L 274.818747 91.594732 
L 270.286967 87.873684 
L 274.515809 84.401379 
L 272.991783 75.694737 
L 270.286967 72.229177 
L 257.211893 63.515789 
L 255.454502 62.84524 
L 253.513088 63.515789 
L 240.622038 70.420763 
L 236.330872 75.694737 
L 233.960157 87.873684 
L 232.083721 100.052632 
L 225.789573 110.856316 
L 225.315034 112.231579 
L 221.752466 121.095654 
L 224.298653 123.186331 
L 225.789573 119.476751 
L 231.274405 112.231579 
L 237.801447 100.052632 
L 240.488479 87.873684 
L 240.622038 87.168526 
L 249.723828 75.694737 
L 255.454502 73.32696 
L 259.244028 75.694737 
L 265.058391 87.873684 
L 266.702929 100.052632 
L 270.286967 105.382753 
L 272.175794 112.231579 
L 272.413734 124.410526 
L 282.244797 136.589474 
L 285.119431 138.769008 
L 293.622463 148.768421 
L 299.924547 160.947368 
L 299.951896 161.039591 
L 302.269699 173.126316 
L 301.94789 185.305263 
z
" style="fill:#fff0a8;"/>
    <path clip-path="url(#p57cb41fa39)" d="M 151.627251 104.500941 
L 164.554576 100.052632 
L 166.459716 97.946631 
L 181.29218 88.262671 
L 181.453139 87.873684 
L 181.29218 87.65779 
L 166.459716 76.183673 
L 166.135642 75.694737 
L 151.627251 65.33826 
L 150.309357 63.515789 
L 140.893758 51.336842 
L 137.586827 51.336842 
L 146.194834 63.515789 
L 151.627251 71.028092 
L 158.164755 75.694737 
L 166.230809 87.873684 
L 155.180587 100.052632 
L 151.627251 101.275339 
L 144.558824 106.427689 
L 146.639824 108.136399 
z
" style="fill:#fff0a8;"/>
   </g>
   <g id="PathCollection_13">
    <path clip-path="url(#p57cb41fa39)" d="M 307.0171 191.682966 
L 308.701028 190.300292 
L 306.522064 185.305263 
L 306.823069 173.126316 
L 304.496987 160.947368 
L 300.776714 149.44568 
L 299.951896 148.768421 
L 299.951896 147.739575 
L 290.184278 136.589474 
L 285.119431 125.653691 
L 284.126098 124.410526 
L 283.757065 112.231579 
L 281.411276 100.052632 
L 281.329694 96.940876 
L 274.818747 91.594732 
L 275.040491 100.052632 
L 277.966429 112.231579 
L 278.269916 124.410526 
L 285.119431 132.982754 
L 286.789864 136.589474 
L 297.271642 148.768421 
L 299.951896 153.948904 
L 302.21558 160.947368 
L 304.546384 173.126316 
L 304.234977 185.305263 
z
" style="fill:#fee192;"/>
    <path clip-path="url(#p57cb41fa39)" d="M 225.315034 112.231579 
L 225.789573 110.856316 
L 232.083721 100.052632 
L 233.960157 87.873684 
L 236.330872 75.694737 
L 240.622038 70.420763 
L 253.513088 63.515789 
L 255.454502 62.84524 
L 257.211893 63.515789 
L 270.286967 72.229177 
L 272.991783 75.694737 
L 274.515809 84.401379 
L 280.591517 79.412611 
L 279.940733 75.694737 
L 270.69985 63.854808 
L 270.286967 63.515789 
L 270.039481 63.312579 
L 255.454502 57.74754 
L 240.622038 62.858589 
L 239.827329 63.515789 
L 229.898471 75.694737 
L 227.431834 87.873684 
L 226.365996 100.052632 
L 225.789573 101.04204 
L 221.928581 112.231579 
L 219.206278 119.004978 
L 221.752466 121.095654 
z
" style="fill:#fee192;"/>
    <path clip-path="url(#p57cb41fa39)" d="M 151.627251 107.726543 
L 166.459716 103.199819 
L 181.29218 100.782176 
L 183.10497 100.052632 
L 188.552846 87.873684 
L 181.29218 78.134964 
L 178.165456 75.694737 
L 166.459716 69.451932 
L 157.960244 63.515789 
L 151.627251 60.686144 
L 144.20069 51.336842 
L 140.893758 51.336842 
L 150.309357 63.515789 
L 151.627251 65.33826 
L 166.135642 75.694737 
L 166.459716 76.183673 
L 181.29218 87.65779 
L 181.453139 87.873684 
L 181.29218 88.262671 
L 166.459716 97.946631 
L 164.554576 100.052632 
L 151.627251 104.500941 
L 146.639824 108.136399 
L 148.720823 109.845109 
z
" style="fill:#fee192;"/>
   </g>
   <g id="PathCollection_14">
    <path clip-path="url(#p57cb41fa39)" d="M 308.701028 190.300292 
L 310.384955 188.917617 
L 308.809151 185.305263 
L 309.099755 173.126316 
L 306.778393 160.947368 
L 303.883157 151.996382 
L 300.776714 149.44568 
L 304.496987 160.947368 
L 306.823069 173.126316 
L 306.522064 185.305263 
z
" style="fill:#feca7c;"/>
    <path clip-path="url(#p57cb41fa39)" d="M 299.951896 147.739575 
L 299.951896 143.864723 
L 293.578693 136.589474 
L 288.08139 124.410526 
L 287.890975 114.507296 
L 285.119431 112.231579 
L 285.119431 100.052632 
L 281.329694 96.940876 
L 281.411276 100.052632 
L 283.757065 112.231579 
L 284.126098 124.410526 
L 285.119431 125.653691 
L 290.184278 136.589474 
z
" style="fill:#feca7c;"/>
    <path clip-path="url(#p57cb41fa39)" d="M 221.928581 112.231579 
L 225.789573 101.04204 
L 226.365996 100.052632 
L 227.431834 87.873684 
L 229.898471 75.694737 
L 239.827329 63.515789 
L 240.622038 62.858589 
L 255.454502 57.74754 
L 270.039481 63.312579 
L 258.441704 53.789636 
L 255.454502 52.64984 
L 240.622038 57.666352 
L 233.548701 63.515789 
L 225.789573 72.940065 
L 222.333388 75.694737 
L 220.660077 87.873684 
L 219.706587 100.052632 
L 218.542128 112.231579 
L 216.660091 116.914302 
L 219.206278 119.004978 
z
" style="fill:#feca7c;"/>
    <path clip-path="url(#p57cb41fa39)" d="M 151.627251 110.952144 
L 166.459716 107.149786 
L 181.29218 103.114128 
L 188.899461 100.052632 
L 195.652552 87.873684 
L 187.15965 75.694737 
L 181.29218 65.234377 
L 172.660547 63.515789 
L 166.459716 62.966314 
L 151.627251 56.523046 
L 147.507621 51.336842 
L 144.20069 51.336842 
L 151.627251 60.686144 
L 157.960244 63.515789 
L 166.459716 69.451932 
L 178.165456 75.694737 
L 181.29218 78.134964 
L 188.552846 87.873684 
L 183.10497 100.052632 
L 181.29218 100.782176 
L 166.459716 103.199819 
L 151.627251 107.726543 
L 148.720823 109.845109 
L 150.801823 111.553819 
z
" style="fill:#feca7c;"/>
    <path clip-path="url(#p57cb41fa39)" d="M 280.591517 79.412611 
L 285.119431 75.694737 
L 270.69985 63.854808 
L 279.940733 75.694737 
z
" style="fill:#feca7c;"/>
   </g>
   <g id="PathCollection_15">
    <path clip-path="url(#p57cb41fa39)" d="M 310.384955 188.917617 
L 312.068883 187.534943 
L 311.096238 185.305263 
L 311.37644 173.126316 
L 309.0598 160.947368 
L 306.989599 154.547084 
L 303.883157 151.996382 
L 306.778393 160.947368 
L 309.099755 173.126316 
L 308.809151 185.305263 
z
" style="fill:#fdb366;"/>
    <path clip-path="url(#p57cb41fa39)" d="M 299.951896 143.864723 
L 299.951896 139.989871 
L 296.973108 136.589474 
L 291.648388 124.410526 
L 291.515191 117.483142 
L 287.890975 114.507296 
L 288.08139 124.410526 
L 293.578693 136.589474 
z
" style="fill:#fdb366;"/>
    <path clip-path="url(#p57cb41fa39)" d="M 218.542128 112.231579 
L 219.706587 100.052632 
L 220.660077 87.873684 
L 222.333388 75.694737 
L 225.789573 72.940065 
L 233.548701 63.515789 
L 240.622038 57.666352 
L 255.454502 52.64984 
L 258.441704 53.789636 
L 255.454502 51.336842 
L 244.001045 51.336842 
L 240.622038 52.474114 
L 227.270073 63.515789 
L 225.789573 65.314012 
L 212.76526 75.694737 
L 213.806498 87.873684 
L 212.941602 100.052632 
L 215.155675 112.231579 
L 214.113904 114.823625 
L 216.660091 116.914302 
z
" style="fill:#fdb366;"/>
    <path clip-path="url(#p57cb41fa39)" d="M 151.627251 112.231579 
L 161.683728 112.231579 
L 166.459716 111.099752 
L 181.29218 105.44608 
L 194.693952 100.052632 
L 196.124644 97.505171 
L 206.386723 87.873684 
L 196.124644 77.247268 
L 195.048689 75.694737 
L 188.392784 63.515789 
L 181.29218 59.590075 
L 166.459716 56.706818 
L 151.627251 52.359948 
L 150.814553 51.336842 
L 147.507621 51.336842 
L 151.627251 56.523046 
L 166.459716 62.966314 
L 172.660547 63.515789 
L 181.29218 65.234377 
L 187.15965 75.694737 
L 195.652552 87.873684 
L 188.899461 100.052632 
L 181.29218 103.114128 
L 166.459716 107.149786 
L 151.627251 110.952144 
L 150.801823 111.553819 
z
" style="fill:#fdb366;"/>
   </g>
   <g id="PathCollection_16">
    <path clip-path="url(#p57cb41fa39)" d="M 312.068883 187.534943 
L 313.752811 186.152269 
L 313.383325 185.305263 
L 313.653125 173.126316 
L 311.341206 160.947368 
L 310.096041 157.097787 
L 306.989599 154.547084 
L 309.0598 160.947368 
L 311.37644 173.126316 
L 311.096238 185.305263 
z
" style="fill:#fa9656;"/>
    <path clip-path="url(#p57cb41fa39)" d="M 299.951896 139.989871 
L 299.951896 136.589474 
L 299.951896 135.561252 
L 295.215386 124.410526 
L 295.139407 120.458989 
L 291.515191 117.483142 
L 291.648388 124.410526 
L 296.973108 136.589474 
z
" style="fill:#fa9656;"/>
    <path clip-path="url(#p57cb41fa39)" d="M 215.155675 112.231579 
L 212.941602 100.052632 
L 213.806498 87.873684 
L 212.76526 75.694737 
L 225.789573 65.314012 
L 227.270073 63.515789 
L 240.622038 52.474114 
L 244.001045 51.336842 
L 240.622038 51.336842 
L 237.551319 51.336842 
L 225.789573 61.037536 
L 220.822602 63.515789 
L 210.957109 71.453488 
L 196.543936 63.515789 
L 196.124644 63.223418 
L 181.29218 55.117882 
L 168.594064 51.336842 
L 166.459716 51.336842 
L 151.627251 51.336842 
L 150.814553 51.336842 
L 151.627251 52.359948 
L 166.459716 56.706818 
L 181.29218 59.590075 
L 188.392784 63.515789 
L 195.048689 75.694737 
L 196.124644 77.247268 
L 206.386723 87.873684 
L 196.124644 97.505171 
L 194.693952 100.052632 
L 181.29218 105.44608 
L 166.459716 111.099752 
L 161.683728 112.231579 
L 166.459716 112.231579 
L 170.493774 112.231579 
L 181.29218 107.778032 
L 196.124644 103.90052 
L 210.957109 109.145713 
L 211.769222 112.231579 
L 211.567716 112.732949 
L 214.113904 114.823625 
z
" style="fill:#fa9656;"/>
   </g>
   <g id="PathCollection_17">
    <path clip-path="url(#p57cb41fa39)" d="M 313.752811 186.152269 
L 314.78436 185.305263 
L 314.78436 173.126316 
L 314.78436 167.07355 
L 313.622612 160.947368 
L 313.202484 159.648489 
L 310.096041 157.097787 
L 311.341206 160.947368 
L 313.653125 173.126316 
L 313.383325 185.305263 
z
" style="fill:#f57547;"/>
    <path clip-path="url(#p57cb41fa39)" d="M 299.951896 135.561252 
L 299.951896 127.1638 
L 298.782383 124.410526 
L 298.763623 123.434835 
L 295.139407 120.458989 
L 295.215386 124.410526 
z
" style="fill:#f57547;"/>
    <path clip-path="url(#p57cb41fa39)" d="M 211.769222 112.231579 
L 210.957109 109.145713 
L 196.124644 103.90052 
L 181.29218 107.778032 
L 170.493774 112.231579 
L 176.148 112.231579 
L 181.29218 110.109984 
L 196.124644 109.009957 
L 202.84942 112.231579 
L 210.957109 112.231579 
L 211.567716 112.732949 
z
" style="fill:#f57547;"/>
    <path clip-path="url(#p57cb41fa39)" d="M 210.957109 71.453488 
L 220.822602 63.515789 
L 225.789573 61.037536 
L 237.551319 51.336842 
L 233.619373 51.336842 
L 225.789573 57.794599 
L 214.323034 63.515789 
L 210.957109 66.223987 
L 206.039599 63.515789 
L 196.124644 56.602095 
L 183.705759 51.336842 
L 181.29218 51.336842 
L 168.594064 51.336842 
L 181.29218 55.117882 
L 196.124644 63.223418 
L 196.543936 63.515789 
z
" style="fill:#f57547;"/>
   </g>
   <g id="PathCollection_18">
    <path clip-path="url(#p57cb41fa39)" d="M 314.78436 167.07355 
L 314.78436 160.947368 
L 313.202484 159.648489 
L 313.622612 160.947368 
z
" style="fill:#ea5739;"/>
    <path clip-path="url(#p57cb41fa39)" d="M 299.951896 127.1638 
L 299.951896 124.410526 
L 298.763623 123.434835 
L 298.782383 124.410526 
z
" style="fill:#ea5739;"/>
    <path clip-path="url(#p57cb41fa39)" d="M 181.29218 112.231579 
L 196.124644 112.231579 
L 202.84942 112.231579 
L 196.124644 109.009957 
L 181.29218 110.109984 
L 176.148 112.231579 
z
" style="fill:#ea5739;"/>
    <path clip-path="url(#p57cb41fa39)" d="M 210.957109 66.223987 
L 214.323034 63.515789 
L 225.789573 57.794599 
L 233.619373 51.336842 
L 229.687428 51.336842 
L 225.789573 54.551662 
L 210.957109 61.39181 
L 197.345983 51.336842 
L 196.124644 51.336842 
L 183.705759 51.336842 
L 196.124644 56.602095 
L 206.039599 63.515789 
z
" style="fill:#ea5739;"/>
   </g>
   <g id="PathCollection_19">
    <path clip-path="url(#p57cb41fa39)" d="M 210.957109 61.39181 
L 225.789573 54.551662 
L 229.687428 51.336842 
L 225.789573 51.336842 
L 225.689966 51.336842 
L 210.957109 56.986411 
L 203.309447 51.336842 
L 197.345983 51.336842 
z
" style="fill:#dc3b2c;"/>
   </g>
   <g id="PathCollection_20">
    <path clip-path="url(#p57cb41fa39)" d="M 210.957109 56.986411 
L 225.689966 51.336842 
L 214.201634 51.336842 
L 210.957109 52.581012 
L 209.272912 51.336842 
L 203.309447 51.336842 
z
" style="fill:#c82227;"/>
   </g>
   <g id="PathCollection_21">
    <path clip-path="url(#p57cb41fa39)" d="M 210.957109 52.581012 
L 214.201634 51.336842 
L 210.957109 51.336842 
L 209.272912 51.336842 
z
" style="fill:#b10b26;"/>
   </g>
   <g id="matplotlib.axis_1">
    <g id="xtick_1">
     <g id="line2d_1">
      <path clip-path="url(#p57cb41fa39)" d="M 88.703432 246.2 
L 88.703432 14.8 
" style="fill:none;stroke:#ffffff;stroke-linecap:round;stroke-width:2;"/>
     </g>
     <g id="line2d_2">
      <defs>
       <path d="M 0 0 
L 0 3.5 
" id="m819f4446d8" style="stroke:#000000;stroke-width:0.8;"/>
      </defs>
      <g>
       <use style="stroke:#000000;stroke-width:0.8;" x="88.703432" xlink:href="#m819f4446d8" y="246.2"/>
      </g>
     </g>
     <g id="text_1">
      <!-- 0.5 -->
      <g transform="translate(80.75187 260.798437)scale(0.1 -0.1)">
       <defs>
        <path d="M 31.78125 66.40625 
Q 24.171875 66.40625 20.328125 58.90625 
Q 16.5 51.421875 16.5 36.375 
Q 16.5 21.390625 20.328125 13.890625 
Q 24.171875 6.390625 31.78125 6.390625 
Q 39.453125 6.390625 43.28125 13.890625 
Q 47.125 21.390625 47.125 36.375 
Q 47.125 51.421875 43.28125 58.90625 
Q 39.453125 66.40625 31.78125 66.40625 
z
M 31.78125 74.21875 
Q 44.046875 74.21875 50.515625 64.515625 
Q 56.984375 54.828125 56.984375 36.375 
Q 56.984375 17.96875 50.515625 8.265625 
Q 44.046875 -1.421875 31.78125 -1.421875 
Q 19.53125 -1.421875 13.0625 8.265625 
Q 6.59375 17.96875 6.59375 36.375 
Q 6.59375 54.828125 13.0625 64.515625 
Q 19.53125 74.21875 31.78125 74.21875 
z
" id="DejaVuSans-48"/>
        <path d="M 10.6875 12.40625 
L 21 12.40625 
L 21 0 
L 10.6875 0 
z
" id="DejaVuSans-46"/>
        <path d="M 10.796875 72.90625 
L 49.515625 72.90625 
L 49.515625 64.59375 
L 19.828125 64.59375 
L 19.828125 46.734375 
Q 21.96875 47.46875 24.109375 47.828125 
Q 26.265625 48.1875 28.421875 48.1875 
Q 40.625 48.1875 47.75 41.5 
Q 54.890625 34.8125 54.890625 23.390625 
Q 54.890625 11.625 47.5625 5.09375 
Q 40.234375 -1.421875 26.90625 -1.421875 
Q 22.3125 -1.421875 17.546875 -0.640625 
Q 12.796875 0.140625 7.71875 1.703125 
L 7.71875 11.625 
Q 12.109375 9.234375 16.796875 8.0625 
Q 21.484375 6.890625 26.703125 6.890625 
Q 35.15625 6.890625 40.078125 11.328125 
Q 45.015625 15.765625 45.015625 23.390625 
Q 45.015625 31 40.078125 35.4375 
Q 35.15625 39.890625 26.703125 39.890625 
Q 22.75 39.890625 18.8125 39.015625 
Q 14.890625 38.140625 10.796875 36.28125 
z
" id="DejaVuSans-53"/>
       </defs>
       <use xlink:href="#DejaVuSans-48"/>
       <use x="63.623047" xlink:href="#DejaVuSans-46"/>
       <use x="95.410156" xlink:href="#DejaVuSans-53"/>
      </g>
     </g>
    </g>
    <g id="xtick_2">
     <g id="line2d_3">
      <path clip-path="url(#p57cb41fa39)" d="M 137.994771 246.2 
L 137.994771 14.8 
" style="fill:none;stroke:#ffffff;stroke-linecap:round;stroke-width:2;"/>
     </g>
     <g id="line2d_4">
      <g>
       <use style="stroke:#000000;stroke-width:0.8;" x="137.994771" xlink:href="#m819f4446d8" y="246.2"/>
      </g>
     </g>
     <g id="text_2">
      <!-- 0.6 -->
      <g transform="translate(130.043209 260.798437)scale(0.1 -0.1)">
       <defs>
        <path d="M 33.015625 40.375 
Q 26.375 40.375 22.484375 35.828125 
Q 18.609375 31.296875 18.609375 23.390625 
Q 18.609375 15.53125 22.484375 10.953125 
Q 26.375 6.390625 33.015625 6.390625 
Q 39.65625 6.390625 43.53125 10.953125 
Q 47.40625 15.53125 47.40625 23.390625 
Q 47.40625 31.296875 43.53125 35.828125 
Q 39.65625 40.375 33.015625 40.375 
z
M 52.59375 71.296875 
L 52.59375 62.3125 
Q 48.875 64.0625 45.09375 64.984375 
Q 41.3125 65.921875 37.59375 65.921875 
Q 27.828125 65.921875 22.671875 59.328125 
Q 17.53125 52.734375 16.796875 39.40625 
Q 19.671875 43.65625 24.015625 45.921875 
Q 28.375 48.1875 33.59375 48.1875 
Q 44.578125 48.1875 50.953125 41.515625 
Q 57.328125 34.859375 57.328125 23.390625 
Q 57.328125 12.15625 50.6875 5.359375 
Q 44.046875 -1.421875 33.015625 -1.421875 
Q 20.359375 -1.421875 13.671875 8.265625 
Q 6.984375 17.96875 6.984375 36.375 
Q 6.984375 53.65625 15.1875 63.9375 
Q 23.390625 74.21875 37.203125 74.21875 
Q 40.921875 74.21875 44.703125 73.484375 
Q 48.484375 72.75 52.59375 71.296875 
z
" id="DejaVuSans-54"/>
       </defs>
       <use xlink:href="#DejaVuSans-48"/>
       <use x="63.623047" xlink:href="#DejaVuSans-46"/>
       <use x="95.410156" xlink:href="#DejaVuSans-54"/>
      </g>
     </g>
    </g>
    <g id="xtick_3">
     <g id="line2d_5">
      <path clip-path="url(#p57cb41fa39)" d="M 187.286111 246.2 
L 187.286111 14.8 
" style="fill:none;stroke:#ffffff;stroke-linecap:round;stroke-width:2;"/>
     </g>
     <g id="line2d_6">
      <g>
       <use style="stroke:#000000;stroke-width:0.8;" x="187.286111" xlink:href="#m819f4446d8" y="246.2"/>
      </g>
     </g>
     <g id="text_3">
      <!-- 0.7 -->
      <g transform="translate(179.334548 260.798437)scale(0.1 -0.1)">
       <defs>
        <path d="M 8.203125 72.90625 
L 55.078125 72.90625 
L 55.078125 68.703125 
L 28.609375 0 
L 18.3125 0 
L 43.21875 64.59375 
L 8.203125 64.59375 
z
" id="DejaVuSans-55"/>
       </defs>
       <use xlink:href="#DejaVuSans-48"/>
       <use x="63.623047" xlink:href="#DejaVuSans-46"/>
       <use x="95.410156" xlink:href="#DejaVuSans-55"/>
      </g>
     </g>
    </g>
    <g id="xtick_4">
     <g id="line2d_7">
      <path clip-path="url(#p57cb41fa39)" d="M 236.57745 246.2 
L 236.57745 14.8 
" style="fill:none;stroke:#ffffff;stroke-linecap:round;stroke-width:2;"/>
     </g>
     <g id="line2d_8">
      <g>
       <use style="stroke:#000000;stroke-width:0.8;" x="236.57745" xlink:href="#m819f4446d8" y="246.2"/>
      </g>
     </g>
     <g id="text_4">
      <!-- 0.8 -->
      <g transform="translate(228.625887 260.798437)scale(0.1 -0.1)">
       <defs>
        <path d="M 31.78125 34.625 
Q 24.75 34.625 20.71875 30.859375 
Q 16.703125 27.09375 16.703125 20.515625 
Q 16.703125 13.921875 20.71875 10.15625 
Q 24.75 6.390625 31.78125 6.390625 
Q 38.8125 6.390625 42.859375 10.171875 
Q 46.921875 13.96875 46.921875 20.515625 
Q 46.921875 27.09375 42.890625 30.859375 
Q 38.875 34.625 31.78125 34.625 
z
M 21.921875 38.8125 
Q 15.578125 40.375 12.03125 44.71875 
Q 8.5 49.078125 8.5 55.328125 
Q 8.5 64.0625 14.71875 69.140625 
Q 20.953125 74.21875 31.78125 74.21875 
Q 42.671875 74.21875 48.875 69.140625 
Q 55.078125 64.0625 55.078125 55.328125 
Q 55.078125 49.078125 51.53125 44.71875 
Q 48 40.375 41.703125 38.8125 
Q 48.828125 37.15625 52.796875 32.3125 
Q 56.78125 27.484375 56.78125 20.515625 
Q 56.78125 9.90625 50.3125 4.234375 
Q 43.84375 -1.421875 31.78125 -1.421875 
Q 19.734375 -1.421875 13.25 4.234375 
Q 6.78125 9.90625 6.78125 20.515625 
Q 6.78125 27.484375 10.78125 32.3125 
Q 14.796875 37.15625 21.921875 38.8125 
z
M 18.3125 54.390625 
Q 18.3125 48.734375 21.84375 45.5625 
Q 25.390625 42.390625 31.78125 42.390625 
Q 38.140625 42.390625 41.71875 45.5625 
Q 45.3125 48.734375 45.3125 54.390625 
Q 45.3125 60.0625 41.71875 63.234375 
Q 38.140625 66.40625 31.78125 66.40625 
Q 25.390625 66.40625 21.84375 63.234375 
Q 18.3125 60.0625 18.3125 54.390625 
z
" id="DejaVuSans-56"/>
       </defs>
       <use xlink:href="#DejaVuSans-48"/>
       <use x="63.623047" xlink:href="#DejaVuSans-46"/>
       <use x="95.410156" xlink:href="#DejaVuSans-56"/>
      </g>
     </g>
    </g>
    <g id="xtick_5">
     <g id="line2d_9">
      <path clip-path="url(#p57cb41fa39)" d="M 285.868789 246.2 
L 285.868789 14.8 
" style="fill:none;stroke:#ffffff;stroke-linecap:round;stroke-width:2;"/>
     </g>
     <g id="line2d_10">
      <g>
       <use style="stroke:#000000;stroke-width:0.8;" x="285.868789" xlink:href="#m819f4446d8" y="246.2"/>
      </g>
     </g>
     <g id="text_5">
      <!-- 0.9 -->
      <g transform="translate(277.917227 260.798437)scale(0.1 -0.1)">
       <defs>
        <path d="M 10.984375 1.515625 
L 10.984375 10.5 
Q 14.703125 8.734375 18.5 7.8125 
Q 22.3125 6.890625 25.984375 6.890625 
Q 35.75 6.890625 40.890625 13.453125 
Q 46.046875 20.015625 46.78125 33.40625 
Q 43.953125 29.203125 39.59375 26.953125 
Q 35.25 24.703125 29.984375 24.703125 
Q 19.046875 24.703125 12.671875 31.3125 
Q 6.296875 37.9375 6.296875 49.421875 
Q 6.296875 60.640625 12.9375 67.421875 
Q 19.578125 74.21875 30.609375 74.21875 
Q 43.265625 74.21875 49.921875 64.515625 
Q 56.59375 54.828125 56.59375 36.375 
Q 56.59375 19.140625 48.40625 8.859375 
Q 40.234375 -1.421875 26.421875 -1.421875 
Q 22.703125 -1.421875 18.890625 -0.6875 
Q 15.09375 0.046875 10.984375 1.515625 
z
M 30.609375 32.421875 
Q 37.25 32.421875 41.125 36.953125 
Q 45.015625 41.5 45.015625 49.421875 
Q 45.015625 57.28125 41.125 61.84375 
Q 37.25 66.40625 30.609375 66.40625 
Q 23.96875 66.40625 20.09375 61.84375 
Q 16.21875 57.28125 16.21875 49.421875 
Q 16.21875 41.5 20.09375 36.953125 
Q 23.96875 32.421875 30.609375 32.421875 
z
" id="DejaVuSans-57"/>
       </defs>
       <use xlink:href="#DejaVuSans-48"/>
       <use x="63.623047" xlink:href="#DejaVuSans-46"/>
       <use x="95.410156" xlink:href="#DejaVuSans-57"/>
      </g>
     </g>
    </g>
    <g id="xtick_6">
     <g id="line2d_11">
      <path clip-path="url(#p57cb41fa39)" d="M 335.160128 246.2 
L 335.160128 14.8 
" style="fill:none;stroke:#ffffff;stroke-linecap:round;stroke-width:2;"/>
     </g>
     <g id="line2d_12">
      <g>
       <use style="stroke:#000000;stroke-width:0.8;" x="335.160128" xlink:href="#m819f4446d8" y="246.2"/>
      </g>
     </g>
     <g id="text_6">
      <!-- 1.0 -->
      <g transform="translate(327.208566 260.798437)scale(0.1 -0.1)">
       <defs>
        <path d="M 12.40625 8.296875 
L 28.515625 8.296875 
L 28.515625 63.921875 
L 10.984375 60.40625 
L 10.984375 69.390625 
L 28.421875 72.90625 
L 38.28125 72.90625 
L 38.28125 8.296875 
L 54.390625 8.296875 
L 54.390625 0 
L 12.40625 0 
z
" id="DejaVuSans-49"/>
       </defs>
       <use xlink:href="#DejaVuSans-49"/>
       <use x="63.623047" xlink:href="#DejaVuSans-46"/>
       <use x="95.410156" xlink:href="#DejaVuSans-48"/>
      </g>
     </g>
    </g>
    <g id="text_7">
     <!-- SF (nm) -->
     <g transform="translate(177.580312 274.476562)scale(0.1 -0.1)">
      <defs>
       <path d="M 53.515625 70.515625 
L 53.515625 60.890625 
Q 47.90625 63.578125 42.921875 64.890625 
Q 37.9375 66.21875 33.296875 66.21875 
Q 25.25 66.21875 20.875 63.09375 
Q 16.5 59.96875 16.5 54.203125 
Q 16.5 49.359375 19.40625 46.890625 
Q 22.3125 44.4375 30.421875 42.921875 
L 36.375 41.703125 
Q 47.40625 39.59375 52.65625 34.296875 
Q 57.90625 29 57.90625 20.125 
Q 57.90625 9.515625 50.796875 4.046875 
Q 43.703125 -1.421875 29.984375 -1.421875 
Q 24.8125 -1.421875 18.96875 -0.25 
Q 13.140625 0.921875 6.890625 3.21875 
L 6.890625 13.375 
Q 12.890625 10.015625 18.65625 8.296875 
Q 24.421875 6.59375 29.984375 6.59375 
Q 38.421875 6.59375 43.015625 9.90625 
Q 47.609375 13.234375 47.609375 19.390625 
Q 47.609375 24.75 44.3125 27.78125 
Q 41.015625 30.8125 33.5 32.328125 
L 27.484375 33.5 
Q 16.453125 35.6875 11.515625 40.375 
Q 6.59375 45.0625 6.59375 53.421875 
Q 6.59375 63.09375 13.40625 68.65625 
Q 20.21875 74.21875 32.171875 74.21875 
Q 37.3125 74.21875 42.625 73.28125 
Q 47.953125 72.359375 53.515625 70.515625 
z
" id="DejaVuSans-83"/>
       <path d="M 9.8125 72.90625 
L 51.703125 72.90625 
L 51.703125 64.59375 
L 19.671875 64.59375 
L 19.671875 43.109375 
L 48.578125 43.109375 
L 48.578125 34.8125 
L 19.671875 34.8125 
L 19.671875 0 
L 9.8125 0 
z
" id="DejaVuSans-70"/>
       <path id="DejaVuSans-32"/>
       <path d="M 31 75.875 
Q 24.46875 64.65625 21.28125 53.65625 
Q 18.109375 42.671875 18.109375 31.390625 
Q 18.109375 20.125 21.3125 9.0625 
Q 24.515625 -2 31 -13.1875 
L 23.1875 -13.1875 
Q 15.875 -1.703125 12.234375 9.375 
Q 8.59375 20.453125 8.59375 31.390625 
Q 8.59375 42.28125 12.203125 53.3125 
Q 15.828125 64.359375 23.1875 75.875 
z
" id="DejaVuSans-40"/>
       <path d="M 54.890625 33.015625 
L 54.890625 0 
L 45.90625 0 
L 45.90625 32.71875 
Q 45.90625 40.484375 42.875 44.328125 
Q 39.84375 48.1875 33.796875 48.1875 
Q 26.515625 48.1875 22.3125 43.546875 
Q 18.109375 38.921875 18.109375 30.90625 
L 18.109375 0 
L 9.078125 0 
L 9.078125 54.6875 
L 18.109375 54.6875 
L 18.109375 46.1875 
Q 21.34375 51.125 25.703125 53.5625 
Q 30.078125 56 35.796875 56 
Q 45.21875 56 50.046875 50.171875 
Q 54.890625 44.34375 54.890625 33.015625 
z
" id="DejaVuSans-110"/>
       <path d="M 52 44.1875 
Q 55.375 50.25 60.0625 53.125 
Q 64.75 56 71.09375 56 
Q 79.640625 56 84.28125 50.015625 
Q 88.921875 44.046875 88.921875 33.015625 
L 88.921875 0 
L 79.890625 0 
L 79.890625 32.71875 
Q 79.890625 40.578125 77.09375 44.375 
Q 74.3125 48.1875 68.609375 48.1875 
Q 61.625 48.1875 57.5625 43.546875 
Q 53.515625 38.921875 53.515625 30.90625 
L 53.515625 0 
L 44.484375 0 
L 44.484375 32.71875 
Q 44.484375 40.625 41.703125 44.40625 
Q 38.921875 48.1875 33.109375 48.1875 
Q 26.21875 48.1875 22.15625 43.53125 
Q 18.109375 38.875 18.109375 30.90625 
L 18.109375 0 
L 9.078125 0 
L 9.078125 54.6875 
L 18.109375 54.6875 
L 18.109375 46.1875 
Q 21.1875 51.21875 25.484375 53.609375 
Q 29.78125 56 35.6875 56 
Q 41.65625 56 45.828125 52.96875 
Q 50 49.953125 52 44.1875 
z
" id="DejaVuSans-109"/>
       <path d="M 8.015625 75.875 
L 15.828125 75.875 
Q 23.140625 64.359375 26.78125 53.3125 
Q 30.421875 42.28125 30.421875 31.390625 
Q 30.421875 20.453125 26.78125 9.375 
Q 23.140625 -1.703125 15.828125 -13.1875 
L 8.015625 -13.1875 
Q 14.5 -2 17.703125 9.0625 
Q 20.90625 20.125 20.90625 31.390625 
Q 20.90625 42.671875 17.703125 53.65625 
Q 14.5 64.65625 8.015625 75.875 
z
" id="DejaVuSans-41"/>
      </defs>
      <use xlink:href="#DejaVuSans-83"/>
      <use x="63.476562" xlink:href="#DejaVuSans-70"/>
      <use x="120.996094" xlink:href="#DejaVuSans-32"/>
      <use x="152.783203" xlink:href="#DejaVuSans-40"/>
      <use x="191.796875" xlink:href="#DejaVuSans-110"/>
      <use x="255.175781" xlink:href="#DejaVuSans-109"/>
      <use x="352.587891" xlink:href="#DejaVuSans-41"/>
     </g>
    </g>
   </g>
   <g id="matplotlib.axis_2">
    <g id="ytick_1">
     <g id="line2d_13">
      <path clip-path="url(#p57cb41fa39)" d="M 47.8 232.821126 
L 346.52 232.821126 
" style="fill:none;stroke:#ffffff;stroke-linecap:round;stroke-width:2;"/>
     </g>
     <g id="line2d_14">
      <defs>
       <path d="M 0 0 
L -3.5 0 
" id="maa2f1aae07" style="stroke:#000000;stroke-width:0.8;"/>
      </defs>
      <g>
       <use style="stroke:#000000;stroke-width:0.8;" x="47.8" xlink:href="#maa2f1aae07" y="232.821126"/>
      </g>
     </g>
     <g id="text_8">
      <!-- 1.1 -->
      <g transform="translate(24.896875 236.620344)scale(0.1 -0.1)">
       <use xlink:href="#DejaVuSans-49"/>
       <use x="63.623047" xlink:href="#DejaVuSans-46"/>
       <use x="95.410156" xlink:href="#DejaVuSans-49"/>
      </g>
     </g>
    </g>
    <g id="ytick_2">
     <g id="line2d_15">
      <path clip-path="url(#p57cb41fa39)" d="M 47.8 216.64157 
L 346.52 216.64157 
" style="fill:none;stroke:#ffffff;stroke-linecap:round;stroke-width:2;"/>
     </g>
     <g id="line2d_16">
      <g>
       <use style="stroke:#000000;stroke-width:0.8;" x="47.8" xlink:href="#maa2f1aae07" y="216.64157"/>
      </g>
     </g>
     <g id="text_9">
      <!-- 1.2 -->
      <g transform="translate(24.896875 220.440789)scale(0.1 -0.1)">
       <defs>
        <path d="M 19.1875 8.296875 
L 53.609375 8.296875 
L 53.609375 0 
L 7.328125 0 
L 7.328125 8.296875 
Q 12.9375 14.109375 22.625 23.890625 
Q 32.328125 33.6875 34.8125 36.53125 
Q 39.546875 41.84375 41.421875 45.53125 
Q 43.3125 49.21875 43.3125 52.78125 
Q 43.3125 58.59375 39.234375 62.25 
Q 35.15625 65.921875 28.609375 65.921875 
Q 23.96875 65.921875 18.8125 64.3125 
Q 13.671875 62.703125 7.8125 59.421875 
L 7.8125 69.390625 
Q 13.765625 71.78125 18.9375 73 
Q 24.125 74.21875 28.421875 74.21875 
Q 39.75 74.21875 46.484375 68.546875 
Q 53.21875 62.890625 53.21875 53.421875 
Q 53.21875 48.921875 51.53125 44.890625 
Q 49.859375 40.875 45.40625 35.40625 
Q 44.1875 33.984375 37.640625 27.21875 
Q 31.109375 20.453125 19.1875 8.296875 
z
" id="DejaVuSans-50"/>
       </defs>
       <use xlink:href="#DejaVuSans-49"/>
       <use x="63.623047" xlink:href="#DejaVuSans-46"/>
       <use x="95.410156" xlink:href="#DejaVuSans-50"/>
      </g>
     </g>
    </g>
    <g id="ytick_3">
     <g id="line2d_17">
      <path clip-path="url(#p57cb41fa39)" d="M 47.8 200.462015 
L 346.52 200.462015 
" style="fill:none;stroke:#ffffff;stroke-linecap:round;stroke-width:2;"/>
     </g>
     <g id="line2d_18">
      <g>
       <use style="stroke:#000000;stroke-width:0.8;" x="47.8" xlink:href="#maa2f1aae07" y="200.462015"/>
      </g>
     </g>
     <g id="text_10">
      <!-- 1.3 -->
      <g transform="translate(24.896875 204.261234)scale(0.1 -0.1)">
       <defs>
        <path d="M 40.578125 39.3125 
Q 47.65625 37.796875 51.625 33 
Q 55.609375 28.21875 55.609375 21.1875 
Q 55.609375 10.40625 48.1875 4.484375 
Q 40.765625 -1.421875 27.09375 -1.421875 
Q 22.515625 -1.421875 17.65625 -0.515625 
Q 12.796875 0.390625 7.625 2.203125 
L 7.625 11.71875 
Q 11.71875 9.328125 16.59375 8.109375 
Q 21.484375 6.890625 26.8125 6.890625 
Q 36.078125 6.890625 40.9375 10.546875 
Q 45.796875 14.203125 45.796875 21.1875 
Q 45.796875 27.640625 41.28125 31.265625 
Q 36.765625 34.90625 28.71875 34.90625 
L 20.21875 34.90625 
L 20.21875 43.015625 
L 29.109375 43.015625 
Q 36.375 43.015625 40.234375 45.921875 
Q 44.09375 48.828125 44.09375 54.296875 
Q 44.09375 59.90625 40.109375 62.90625 
Q 36.140625 65.921875 28.71875 65.921875 
Q 24.65625 65.921875 20.015625 65.03125 
Q 15.375 64.15625 9.8125 62.3125 
L 9.8125 71.09375 
Q 15.4375 72.65625 20.34375 73.4375 
Q 25.25 74.21875 29.59375 74.21875 
Q 40.828125 74.21875 47.359375 69.109375 
Q 53.90625 64.015625 53.90625 55.328125 
Q 53.90625 49.265625 50.4375 45.09375 
Q 46.96875 40.921875 40.578125 39.3125 
z
" id="DejaVuSans-51"/>
       </defs>
       <use xlink:href="#DejaVuSans-49"/>
       <use x="63.623047" xlink:href="#DejaVuSans-46"/>
       <use x="95.410156" xlink:href="#DejaVuSans-51"/>
      </g>
     </g>
    </g>
    <g id="ytick_4">
     <g id="line2d_19">
      <path clip-path="url(#p57cb41fa39)" d="M 47.8 184.28246 
L 346.52 184.28246 
" style="fill:none;stroke:#ffffff;stroke-linecap:round;stroke-width:2;"/>
     </g>
     <g id="line2d_20">
      <g>
       <use style="stroke:#000000;stroke-width:0.8;" x="47.8" xlink:href="#maa2f1aae07" y="184.28246"/>
      </g>
     </g>
     <g id="text_11">
      <!-- 1.4 -->
      <g transform="translate(24.896875 188.081679)scale(0.1 -0.1)">
       <defs>
        <path d="M 37.796875 64.3125 
L 12.890625 25.390625 
L 37.796875 25.390625 
z
M 35.203125 72.90625 
L 47.609375 72.90625 
L 47.609375 25.390625 
L 58.015625 25.390625 
L 58.015625 17.1875 
L 47.609375 17.1875 
L 47.609375 0 
L 37.796875 0 
L 37.796875 17.1875 
L 4.890625 17.1875 
L 4.890625 26.703125 
z
" id="DejaVuSans-52"/>
       </defs>
       <use xlink:href="#DejaVuSans-49"/>
       <use x="63.623047" xlink:href="#DejaVuSans-46"/>
       <use x="95.410156" xlink:href="#DejaVuSans-52"/>
      </g>
     </g>
    </g>
    <g id="ytick_5">
     <g id="line2d_21">
      <path clip-path="url(#p57cb41fa39)" d="M 47.8 168.102904 
L 346.52 168.102904 
" style="fill:none;stroke:#ffffff;stroke-linecap:round;stroke-width:2;"/>
     </g>
     <g id="line2d_22">
      <g>
       <use style="stroke:#000000;stroke-width:0.8;" x="47.8" xlink:href="#maa2f1aae07" y="168.102904"/>
      </g>
     </g>
     <g id="text_12">
      <!-- 1.5 -->
      <g transform="translate(24.896875 171.902123)scale(0.1 -0.1)">
       <use xlink:href="#DejaVuSans-49"/>
       <use x="63.623047" xlink:href="#DejaVuSans-46"/>
       <use x="95.410156" xlink:href="#DejaVuSans-53"/>
      </g>
     </g>
    </g>
    <g id="ytick_6">
     <g id="line2d_23">
      <path clip-path="url(#p57cb41fa39)" d="M 47.8 151.923349 
L 346.52 151.923349 
" style="fill:none;stroke:#ffffff;stroke-linecap:round;stroke-width:2;"/>
     </g>
     <g id="line2d_24">
      <g>
       <use style="stroke:#000000;stroke-width:0.8;" x="47.8" xlink:href="#maa2f1aae07" y="151.923349"/>
      </g>
     </g>
     <g id="text_13">
      <!-- 1.6 -->
      <g transform="translate(24.896875 155.722568)scale(0.1 -0.1)">
       <use xlink:href="#DejaVuSans-49"/>
       <use x="63.623047" xlink:href="#DejaVuSans-46"/>
       <use x="95.410156" xlink:href="#DejaVuSans-54"/>
      </g>
     </g>
    </g>
    <g id="ytick_7">
     <g id="line2d_25">
      <path clip-path="url(#p57cb41fa39)" d="M 47.8 135.743794 
L 346.52 135.743794 
" style="fill:none;stroke:#ffffff;stroke-linecap:round;stroke-width:2;"/>
     </g>
     <g id="line2d_26">
      <g>
       <use style="stroke:#000000;stroke-width:0.8;" x="47.8" xlink:href="#maa2f1aae07" y="135.743794"/>
      </g>
     </g>
     <g id="text_14">
      <!-- 1.7 -->
      <g transform="translate(24.896875 139.543013)scale(0.1 -0.1)">
       <use xlink:href="#DejaVuSans-49"/>
       <use x="63.623047" xlink:href="#DejaVuSans-46"/>
       <use x="95.410156" xlink:href="#DejaVuSans-55"/>
      </g>
     </g>
    </g>
    <g id="ytick_8">
     <g id="line2d_27">
      <path clip-path="url(#p57cb41fa39)" d="M 47.8 119.564239 
L 346.52 119.564239 
" style="fill:none;stroke:#ffffff;stroke-linecap:round;stroke-width:2;"/>
     </g>
     <g id="line2d_28">
      <g>
       <use style="stroke:#000000;stroke-width:0.8;" x="47.8" xlink:href="#maa2f1aae07" y="119.564239"/>
      </g>
     </g>
     <g id="text_15">
      <!-- 1.8 -->
      <g transform="translate(24.896875 123.363457)scale(0.1 -0.1)">
       <use xlink:href="#DejaVuSans-49"/>
       <use x="63.623047" xlink:href="#DejaVuSans-46"/>
       <use x="95.410156" xlink:href="#DejaVuSans-56"/>
      </g>
     </g>
    </g>
    <g id="ytick_9">
     <g id="line2d_29">
      <path clip-path="url(#p57cb41fa39)" d="M 47.8 103.384683 
L 346.52 103.384683 
" style="fill:none;stroke:#ffffff;stroke-linecap:round;stroke-width:2;"/>
     </g>
     <g id="line2d_30">
      <g>
       <use style="stroke:#000000;stroke-width:0.8;" x="47.8" xlink:href="#maa2f1aae07" y="103.384683"/>
      </g>
     </g>
     <g id="text_16">
      <!-- 1.9 -->
      <g transform="translate(24.896875 107.183902)scale(0.1 -0.1)">
       <use xlink:href="#DejaVuSans-49"/>
       <use x="63.623047" xlink:href="#DejaVuSans-46"/>
       <use x="95.410156" xlink:href="#DejaVuSans-57"/>
      </g>
     </g>
    </g>
    <g id="ytick_10">
     <g id="line2d_31">
      <path clip-path="url(#p57cb41fa39)" d="M 47.8 87.205128 
L 346.52 87.205128 
" style="fill:none;stroke:#ffffff;stroke-linecap:round;stroke-width:2;"/>
     </g>
     <g id="line2d_32">
      <g>
       <use style="stroke:#000000;stroke-width:0.8;" x="47.8" xlink:href="#maa2f1aae07" y="87.205128"/>
      </g>
     </g>
     <g id="text_17">
      <!-- 2.0 -->
      <g transform="translate(24.896875 91.004347)scale(0.1 -0.1)">
       <use xlink:href="#DejaVuSans-50"/>
       <use x="63.623047" xlink:href="#DejaVuSans-46"/>
       <use x="95.410156" xlink:href="#DejaVuSans-48"/>
      </g>
     </g>
    </g>
    <g id="ytick_11">
     <g id="line2d_33">
      <path clip-path="url(#p57cb41fa39)" d="M 47.8 71.025573 
L 346.52 71.025573 
" style="fill:none;stroke:#ffffff;stroke-linecap:round;stroke-width:2;"/>
     </g>
     <g id="line2d_34">
      <g>
       <use style="stroke:#000000;stroke-width:0.8;" x="47.8" xlink:href="#maa2f1aae07" y="71.025573"/>
      </g>
     </g>
     <g id="text_18">
      <!-- 2.1 -->
      <g transform="translate(24.896875 74.824791)scale(0.1 -0.1)">
       <use xlink:href="#DejaVuSans-50"/>
       <use x="63.623047" xlink:href="#DejaVuSans-46"/>
       <use x="95.410156" xlink:href="#DejaVuSans-49"/>
      </g>
     </g>
    </g>
    <g id="ytick_12">
     <g id="line2d_35">
      <path clip-path="url(#p57cb41fa39)" d="M 47.8 54.846017 
L 346.52 54.846017 
" style="fill:none;stroke:#ffffff;stroke-linecap:round;stroke-width:2;"/>
     </g>
     <g id="line2d_36">
      <g>
       <use style="stroke:#000000;stroke-width:0.8;" x="47.8" xlink:href="#maa2f1aae07" y="54.846017"/>
      </g>
     </g>
     <g id="text_19">
      <!-- 2.2 -->
      <g transform="translate(24.896875 58.645236)scale(0.1 -0.1)">
       <use xlink:href="#DejaVuSans-50"/>
       <use x="63.623047" xlink:href="#DejaVuSans-46"/>
       <use x="95.410156" xlink:href="#DejaVuSans-50"/>
      </g>
     </g>
    </g>
    <g id="ytick_13">
     <g id="line2d_37">
      <path clip-path="url(#p57cb41fa39)" d="M 47.8 38.666462 
L 346.52 38.666462 
" style="fill:none;stroke:#ffffff;stroke-linecap:round;stroke-width:2;"/>
     </g>
     <g id="line2d_38">
      <g>
       <use style="stroke:#000000;stroke-width:0.8;" x="47.8" xlink:href="#maa2f1aae07" y="38.666462"/>
      </g>
     </g>
     <g id="text_20">
      <!-- 2.3 -->
      <g transform="translate(24.896875 42.465681)scale(0.1 -0.1)">
       <use xlink:href="#DejaVuSans-50"/>
       <use x="63.623047" xlink:href="#DejaVuSans-46"/>
       <use x="95.410156" xlink:href="#DejaVuSans-51"/>
      </g>
     </g>
    </g>
    <g id="ytick_14">
     <g id="line2d_39">
      <path clip-path="url(#p57cb41fa39)" d="M 47.8 22.486907 
L 346.52 22.486907 
" style="fill:none;stroke:#ffffff;stroke-linecap:round;stroke-width:2;"/>
     </g>
     <g id="line2d_40">
      <g>
       <use style="stroke:#000000;stroke-width:0.8;" x="47.8" xlink:href="#maa2f1aae07" y="22.486907"/>
      </g>
     </g>
     <g id="text_21">
      <!-- 2.4 -->
      <g transform="translate(24.896875 26.286125)scale(0.1 -0.1)">
       <use xlink:href="#DejaVuSans-50"/>
       <use x="63.623047" xlink:href="#DejaVuSans-46"/>
       <use x="95.410156" xlink:href="#DejaVuSans-52"/>
      </g>
     </g>
    </g>
    <g id="text_22">
     <!-- IG (nm) -->
     <g transform="translate(18.817187 149.378906)rotate(-90)scale(0.1 -0.1)">
      <defs>
       <path d="M 9.8125 72.90625 
L 19.671875 72.90625 
L 19.671875 0 
L 9.8125 0 
z
" id="DejaVuSans-73"/>
       <path d="M 59.515625 10.40625 
L 59.515625 29.984375 
L 43.40625 29.984375 
L 43.40625 38.09375 
L 69.28125 38.09375 
L 69.28125 6.78125 
Q 63.578125 2.734375 56.6875 0.65625 
Q 49.8125 -1.421875 42 -1.421875 
Q 24.90625 -1.421875 15.25 8.5625 
Q 5.609375 18.5625 5.609375 36.375 
Q 5.609375 54.25 15.25 64.234375 
Q 24.90625 74.21875 42 74.21875 
Q 49.125 74.21875 55.546875 72.453125 
Q 61.96875 70.703125 67.390625 67.28125 
L 67.390625 56.78125 
Q 61.921875 61.421875 55.765625 63.765625 
Q 49.609375 66.109375 42.828125 66.109375 
Q 29.4375 66.109375 22.71875 58.640625 
Q 16.015625 51.171875 16.015625 36.375 
Q 16.015625 21.625 22.71875 14.15625 
Q 29.4375 6.6875 42.828125 6.6875 
Q 48.046875 6.6875 52.140625 7.59375 
Q 56.25 8.5 59.515625 10.40625 
z
" id="DejaVuSans-71"/>
      </defs>
      <use xlink:href="#DejaVuSans-73"/>
      <use x="29.492188" xlink:href="#DejaVuSans-71"/>
      <use x="106.982422" xlink:href="#DejaVuSans-32"/>
      <use x="138.769531" xlink:href="#DejaVuSans-40"/>
      <use x="177.783203" xlink:href="#DejaVuSans-110"/>
      <use x="241.162109" xlink:href="#DejaVuSans-109"/>
      <use x="338.574219" xlink:href="#DejaVuSans-41"/>
     </g>
    </g>
   </g>
   <g id="line2d_41">
    <path clip-path="url(#p57cb41fa39)" d="M 251.034084 222.030696 
L 258.421462 217.382163 
L 265.80884 212.733631 
L 273.196217 208.085099 
L 280.583595 203.436566 
L 287.970972 198.788034 
L 295.35835 194.139502 
L 302.745728 189.490969 
L 310.133105 184.842437 
L 317.520483 180.193905 
L 324.90786 175.545372 
L 332.295238 170.89684 
L 324.356227 159.895884 
L 316.417215 148.894928 
L 308.478204 137.893972 
L 300.539193 126.893016 
L 292.600182 115.89206 
L 284.66117 104.891104 
L 276.722159 93.890148 
L 268.783148 82.889192 
L 260.844136 71.888236 
L 252.905125 60.887279 
L 244.966114 49.886323 
L 233.044526 50.273871 
L 221.122939 50.661419 
L 209.201352 51.048967 
L 197.279765 51.436515 
L 185.358177 51.824063 
L 173.43659 52.211611 
L 161.515003 52.599158 
L 149.593415 52.986706 
L 137.671828 53.374254 
L 125.750241 53.761802 
L 113.828654 54.14935 
" style="fill:none;stroke:#000000;stroke-dasharray:1.5,2.475;stroke-dashoffset:0;stroke-width:1.5;"/>
    <defs>
     <path d="M 0 1.5 
C 0.397805 1.5 0.77937 1.341951 1.06066 1.06066 
C 1.341951 0.77937 1.5 0.397805 1.5 0 
C 1.5 -0.397805 1.341951 -0.77937 1.06066 -1.06066 
C 0.77937 -1.341951 0.397805 -1.5 0 -1.5 
C -0.397805 -1.5 -0.77937 -1.341951 -1.06066 -1.06066 
C -1.341951 -0.77937 -1.5 -0.397805 -1.5 0 
C -1.5 0.397805 -1.341951 0.77937 -1.06066 1.06066 
C -0.77937 1.341951 -0.397805 1.5 0 1.5 
z
" id="mbe4e213991" style="stroke:#000000;"/>
    </defs>
    <g clip-path="url(#p57cb41fa39)">
     <use style="stroke:#000000;" x="251.034084" xlink:href="#mbe4e213991" y="222.030696"/>
     <use style="stroke:#000000;" x="258.421462" xlink:href="#mbe4e213991" y="217.382163"/>
     <use style="stroke:#000000;" x="265.80884" xlink:href="#mbe4e213991" y="212.733631"/>
     <use style="stroke:#000000;" x="273.196217" xlink:href="#mbe4e213991" y="208.085099"/>
     <use style="stroke:#000000;" x="280.583595" xlink:href="#mbe4e213991" y="203.436566"/>
     <use style="stroke:#000000;" x="287.970972" xlink:href="#mbe4e213991" y="198.788034"/>
     <use style="stroke:#000000;" x="295.35835" xlink:href="#mbe4e213991" y="194.139502"/>
     <use style="stroke:#000000;" x="302.745728" xlink:href="#mbe4e213991" y="189.490969"/>
     <use style="stroke:#000000;" x="310.133105" xlink:href="#mbe4e213991" y="184.842437"/>
     <use style="stroke:#000000;" x="317.520483" xlink:href="#mbe4e213991" y="180.193905"/>
     <use style="stroke:#000000;" x="324.90786" xlink:href="#mbe4e213991" y="175.545372"/>
     <use style="stroke:#000000;" x="332.295238" xlink:href="#mbe4e213991" y="170.89684"/>
     <use style="stroke:#000000;" x="324.356227" xlink:href="#mbe4e213991" y="159.895884"/>
     <use style="stroke:#000000;" x="316.417215" xlink:href="#mbe4e213991" y="148.894928"/>
     <use style="stroke:#000000;" x="308.478204" xlink:href="#mbe4e213991" y="137.893972"/>
     <use style="stroke:#000000;" x="300.539193" xlink:href="#mbe4e213991" y="126.893016"/>
     <use style="stroke:#000000;" x="292.600182" xlink:href="#mbe4e213991" y="115.89206"/>
     <use style="stroke:#000000;" x="284.66117" xlink:href="#mbe4e213991" y="104.891104"/>
     <use style="stroke:#000000;" x="276.722159" xlink:href="#mbe4e213991" y="93.890148"/>
     <use style="stroke:#000000;" x="268.783148" xlink:href="#mbe4e213991" y="82.889192"/>
     <use style="stroke:#000000;" x="260.844136" xlink:href="#mbe4e213991" y="71.888236"/>
     <use style="stroke:#000000;" x="252.905125" xlink:href="#mbe4e213991" y="60.887279"/>
     <use style="stroke:#000000;" x="244.966114" xlink:href="#mbe4e213991" y="49.886323"/>
     <use style="stroke:#000000;" x="233.044526" xlink:href="#mbe4e213991" y="50.273871"/>
     <use style="stroke:#000000;" x="221.122939" xlink:href="#mbe4e213991" y="50.661419"/>
     <use style="stroke:#000000;" x="209.201352" xlink:href="#mbe4e213991" y="51.048967"/>
     <use style="stroke:#000000;" x="197.279765" xlink:href="#mbe4e213991" y="51.436515"/>
     <use style="stroke:#000000;" x="185.358177" xlink:href="#mbe4e213991" y="51.824063"/>
     <use style="stroke:#000000;" x="173.43659" xlink:href="#mbe4e213991" y="52.211611"/>
     <use style="stroke:#000000;" x="161.515003" xlink:href="#mbe4e213991" y="52.599158"/>
     <use style="stroke:#000000;" x="149.593415" xlink:href="#mbe4e213991" y="52.986706"/>
     <use style="stroke:#000000;" x="137.671828" xlink:href="#mbe4e213991" y="53.374254"/>
     <use style="stroke:#000000;" x="125.750241" xlink:href="#mbe4e213991" y="53.761802"/>
     <use style="stroke:#000000;" x="113.828654" xlink:href="#mbe4e213991" y="54.14935"/>
    </g>
   </g>
   <g id="patch_3">
    <path d="M 47.8 246.2 
L 47.8 14.8 
" style="fill:none;stroke:#000000;stroke-linecap:square;stroke-linejoin:miter;stroke-width:0.8;"/>
   </g>
   <g id="patch_4">
    <path d="M 346.52 246.2 
L 346.52 14.8 
" style="fill:none;stroke:#000000;stroke-linecap:square;stroke-linejoin:miter;stroke-width:0.8;"/>
   </g>
   <g id="patch_5">
    <path d="M 47.8 246.2 
L 346.52 246.2 
" style="fill:none;stroke:#000000;stroke-linecap:square;stroke-linejoin:miter;stroke-width:0.8;"/>
   </g>
   <g id="patch_6">
    <path d="M 47.8 14.8 
L 346.52 14.8 
" style="fill:none;stroke:#000000;stroke-linecap:square;stroke-linejoin:miter;stroke-width:0.8;"/>
   </g>
  </g>
  <g id="axes_2">
   <g id="patch_7">
    <path clip-path="url(#p53ae220333)" d="M 365.19 246.2 
L 365.19 235.180952 
L 365.19 25.819048 
L 365.19 14.8 
L 376.76 14.8 
L 376.76 25.819048 
L 376.76 235.180952 
L 376.76 246.2 
z
" style="fill:#f9f9fb;stroke:#f9f9fb;stroke-linejoin:miter;stroke-width:0.01;"/>
   </g>
   <g id="QuadMesh_1">
    <path clip-path="url(#p53ae220333)" d="M 365.19 246.2 
L 376.76 246.2 
L 376.76 235.180952 
L 365.19 235.180952 
L 365.19 246.2 
" style="fill:#36459c;"/>
    <path clip-path="url(#p53ae220333)" d="M 365.19 235.180952 
L 376.76 235.180952 
L 376.76 224.161905 
L 365.19 224.161905 
L 365.19 235.180952 
" style="fill:#3f62ab;"/>
    <path clip-path="url(#p53ae220333)" d="M 365.19 224.161905 
L 376.76 224.161905 
L 376.76 213.142857 
L 365.19 213.142857 
L 365.19 224.161905 
" style="fill:#4d7fb9;"/>
    <path clip-path="url(#p53ae220333)" d="M 365.19 213.142857 
L 376.76 213.142857 
L 376.76 202.12381 
L 365.19 202.12381 
L 365.19 213.142857 
" style="fill:#6399c7;"/>
    <path clip-path="url(#p53ae220333)" d="M 365.19 202.12381 
L 376.76 202.12381 
L 376.76 191.104762 
L 365.19 191.104762 
L 365.19 202.12381 
" style="fill:#7ab2d4;"/>
    <path clip-path="url(#p53ae220333)" d="M 365.19 191.104762 
L 376.76 191.104762 
L 376.76 180.085714 
L 365.19 180.085714 
L 365.19 191.104762 
" style="fill:#97c9e0;"/>
    <path clip-path="url(#p53ae220333)" d="M 365.19 180.085714 
L 376.76 180.085714 
L 376.76 169.066667 
L 365.19 169.066667 
L 365.19 180.085714 
" style="fill:#b0dcea;"/>
    <path clip-path="url(#p53ae220333)" d="M 365.19 169.066667 
L 376.76 169.066667 
L 376.76 158.047619 
L 365.19 158.047619 
L 365.19 169.066667 
" style="fill:#c9e8f2;"/>
    <path clip-path="url(#p53ae220333)" d="M 365.19 158.047619 
L 376.76 158.047619 
L 376.76 147.028571 
L 365.19 147.028571 
L 365.19 158.047619 
" style="fill:#e1f3f6;"/>
    <path clip-path="url(#p53ae220333)" d="M 365.19 147.028571 
L 376.76 147.028571 
L 376.76 136.009524 
L 365.19 136.009524 
L 365.19 147.028571 
" style="fill:#f0f9db;"/>
    <path clip-path="url(#p53ae220333)" d="M 365.19 136.009524 
L 376.76 136.009524 
L 376.76 124.990476 
L 365.19 124.990476 
L 365.19 136.009524 
" style="fill:#fffebe;"/>
    <path clip-path="url(#p53ae220333)" d="M 365.19 124.990476 
L 376.76 124.990476 
L 376.76 113.971429 
L 365.19 113.971429 
L 365.19 124.990476 
" style="fill:#fff0a8;"/>
    <path clip-path="url(#p53ae220333)" d="M 365.19 113.971429 
L 376.76 113.971429 
L 376.76 102.952381 
L 365.19 102.952381 
L 365.19 113.971429 
" style="fill:#fee192;"/>
    <path clip-path="url(#p53ae220333)" d="M 365.19 102.952381 
L 376.76 102.952381 
L 376.76 91.933333 
L 365.19 91.933333 
L 365.19 102.952381 
" style="fill:#feca7c;"/>
    <path clip-path="url(#p53ae220333)" d="M 365.19 91.933333 
L 376.76 91.933333 
L 376.76 80.914286 
L 365.19 80.914286 
L 365.19 91.933333 
" style="fill:#fdb366;"/>
    <path clip-path="url(#p53ae220333)" d="M 365.19 80.914286 
L 376.76 80.914286 
L 376.76 69.895238 
L 365.19 69.895238 
L 365.19 80.914286 
" style="fill:#fa9656;"/>
    <path clip-path="url(#p53ae220333)" d="M 365.19 69.895238 
L 376.76 69.895238 
L 376.76 58.87619 
L 365.19 58.87619 
L 365.19 69.895238 
" style="fill:#f57547;"/>
    <path clip-path="url(#p53ae220333)" d="M 365.19 58.87619 
L 376.76 58.87619 
L 376.76 47.857143 
L 365.19 47.857143 
L 365.19 58.87619 
" style="fill:#ea5739;"/>
    <path clip-path="url(#p53ae220333)" d="M 365.19 47.857143 
L 376.76 47.857143 
L 376.76 36.838095 
L 365.19 36.838095 
L 365.19 47.857143 
" style="fill:#dc3b2c;"/>
    <path clip-path="url(#p53ae220333)" d="M 365.19 36.838095 
L 376.76 36.838095 
L 376.76 25.819048 
L 365.19 25.819048 
L 365.19 36.838095 
" style="fill:#c82227;"/>
    <path clip-path="url(#p53ae220333)" d="M 365.19 25.819048 
L 376.76 25.819048 
L 376.76 14.8 
L 365.19 14.8 
L 365.19 25.819048 
" style="fill:#b10b26;"/>
   </g>
   <g id="matplotlib.axis_3"/>
   <g id="matplotlib.axis_4">
    <g id="ytick_15">
     <g id="line2d_42">
      <defs>
       <path d="M 0 0 
L 3.5 0 
" id="m0250b745bb" style="stroke:#000000;stroke-width:0.8;"/>
      </defs>
      <g>
       <use style="stroke:#000000;stroke-width:0.8;" x="376.76" xlink:href="#m0250b745bb" y="246.2"/>
      </g>
     </g>
     <g id="text_23">
      <!-- 0.0 -->
      <g transform="translate(383.76 249.999219)scale(0.1 -0.1)">
       <use xlink:href="#DejaVuSans-48"/>
       <use x="63.623047" xlink:href="#DejaVuSans-46"/>
       <use x="95.410156" xlink:href="#DejaVuSans-48"/>
      </g>
     </g>
    </g>
    <g id="ytick_16">
     <g id="line2d_43">
      <g>
       <use style="stroke:#000000;stroke-width:0.8;" x="376.76" xlink:href="#m0250b745bb" y="213.142857"/>
      </g>
     </g>
     <g id="text_24">
      <!-- 0.9 -->
      <g transform="translate(383.76 216.942076)scale(0.1 -0.1)">
       <use xlink:href="#DejaVuSans-48"/>
       <use x="63.623047" xlink:href="#DejaVuSans-46"/>
       <use x="95.410156" xlink:href="#DejaVuSans-57"/>
      </g>
     </g>
    </g>
    <g id="ytick_17">
     <g id="line2d_44">
      <g>
       <use style="stroke:#000000;stroke-width:0.8;" x="376.76" xlink:href="#m0250b745bb" y="180.085714"/>
      </g>
     </g>
     <g id="text_25">
      <!-- 1.8 -->
      <g transform="translate(383.76 183.884933)scale(0.1 -0.1)">
       <use xlink:href="#DejaVuSans-49"/>
       <use x="63.623047" xlink:href="#DejaVuSans-46"/>
       <use x="95.410156" xlink:href="#DejaVuSans-56"/>
      </g>
     </g>
    </g>
    <g id="ytick_18">
     <g id="line2d_45">
      <g>
       <use style="stroke:#000000;stroke-width:0.8;" x="376.76" xlink:href="#m0250b745bb" y="147.028571"/>
      </g>
     </g>
     <g id="text_26">
      <!-- 2.7 -->
      <g transform="translate(383.76 150.82779)scale(0.1 -0.1)">
       <use xlink:href="#DejaVuSans-50"/>
       <use x="63.623047" xlink:href="#DejaVuSans-46"/>
       <use x="95.410156" xlink:href="#DejaVuSans-55"/>
      </g>
     </g>
    </g>
    <g id="ytick_19">
     <g id="line2d_46">
      <g>
       <use style="stroke:#000000;stroke-width:0.8;" x="376.76" xlink:href="#m0250b745bb" y="113.971429"/>
      </g>
     </g>
     <g id="text_27">
      <!-- 3.6 -->
      <g transform="translate(383.76 117.770647)scale(0.1 -0.1)">
       <use xlink:href="#DejaVuSans-51"/>
       <use x="63.623047" xlink:href="#DejaVuSans-46"/>
       <use x="95.410156" xlink:href="#DejaVuSans-54"/>
      </g>
     </g>
    </g>
    <g id="ytick_20">
     <g id="line2d_47">
      <g>
       <use style="stroke:#000000;stroke-width:0.8;" x="376.76" xlink:href="#m0250b745bb" y="80.914286"/>
      </g>
     </g>
     <g id="text_28">
      <!-- 4.5 -->
      <g transform="translate(383.76 84.713504)scale(0.1 -0.1)">
       <use xlink:href="#DejaVuSans-52"/>
       <use x="63.623047" xlink:href="#DejaVuSans-46"/>
       <use x="95.410156" xlink:href="#DejaVuSans-53"/>
      </g>
     </g>
    </g>
    <g id="ytick_21">
     <g id="line2d_48">
      <g>
       <use style="stroke:#000000;stroke-width:0.8;" x="376.76" xlink:href="#m0250b745bb" y="47.857143"/>
      </g>
     </g>
     <g id="text_29">
      <!-- 5.4 -->
      <g transform="translate(383.76 51.656362)scale(0.1 -0.1)">
       <use xlink:href="#DejaVuSans-53"/>
       <use x="63.623047" xlink:href="#DejaVuSans-46"/>
       <use x="95.410156" xlink:href="#DejaVuSans-52"/>
      </g>
     </g>
    </g>
    <g id="ytick_22">
     <g id="line2d_49">
      <g>
       <use style="stroke:#000000;stroke-width:0.8;" x="376.76" xlink:href="#m0250b745bb" y="14.8"/>
      </g>
     </g>
     <g id="text_30">
      <!-- 6.3 -->
      <g transform="translate(383.76 18.599219)scale(0.1 -0.1)">
       <use xlink:href="#DejaVuSans-54"/>
       <use x="63.623047" xlink:href="#DejaVuSans-46"/>
       <use x="95.410156" xlink:href="#DejaVuSans-51"/>
      </g>
     </g>
    </g>
    <g id="text_31">
     <!-- Free Energy (kT) -->
     <g transform="translate(411.261563 171.644531)rotate(-90)scale(0.1 -0.1)">
      <defs>
       <path d="M 41.109375 46.296875 
Q 39.59375 47.171875 37.8125 47.578125 
Q 36.03125 48 33.890625 48 
Q 26.265625 48 22.1875 43.046875 
Q 18.109375 38.09375 18.109375 28.8125 
L 18.109375 0 
L 9.078125 0 
L 9.078125 54.6875 
L 18.109375 54.6875 
L 18.109375 46.1875 
Q 20.953125 51.171875 25.484375 53.578125 
Q 30.03125 56 36.53125 56 
Q 37.453125 56 38.578125 55.875 
Q 39.703125 55.765625 41.0625 55.515625 
z
" id="DejaVuSans-114"/>
       <path d="M 56.203125 29.59375 
L 56.203125 25.203125 
L 14.890625 25.203125 
Q 15.484375 15.921875 20.484375 11.0625 
Q 25.484375 6.203125 34.421875 6.203125 
Q 39.59375 6.203125 44.453125 7.46875 
Q 49.3125 8.734375 54.109375 11.28125 
L 54.109375 2.78125 
Q 49.265625 0.734375 44.1875 -0.34375 
Q 39.109375 -1.421875 33.890625 -1.421875 
Q 20.796875 -1.421875 13.15625 6.1875 
Q 5.515625 13.8125 5.515625 26.8125 
Q 5.515625 40.234375 12.765625 48.109375 
Q 20.015625 56 32.328125 56 
Q 43.359375 56 49.78125 48.890625 
Q 56.203125 41.796875 56.203125 29.59375 
z
M 47.21875 32.234375 
Q 47.125 39.59375 43.09375 43.984375 
Q 39.0625 48.390625 32.421875 48.390625 
Q 24.90625 48.390625 20.390625 44.140625 
Q 15.875 39.890625 15.1875 32.171875 
z
" id="DejaVuSans-101"/>
       <path d="M 9.8125 72.90625 
L 55.90625 72.90625 
L 55.90625 64.59375 
L 19.671875 64.59375 
L 19.671875 43.015625 
L 54.390625 43.015625 
L 54.390625 34.71875 
L 19.671875 34.71875 
L 19.671875 8.296875 
L 56.78125 8.296875 
L 56.78125 0 
L 9.8125 0 
z
" id="DejaVuSans-69"/>
       <path d="M 45.40625 27.984375 
Q 45.40625 37.75 41.375 43.109375 
Q 37.359375 48.484375 30.078125 48.484375 
Q 22.859375 48.484375 18.828125 43.109375 
Q 14.796875 37.75 14.796875 27.984375 
Q 14.796875 18.265625 18.828125 12.890625 
Q 22.859375 7.515625 30.078125 7.515625 
Q 37.359375 7.515625 41.375 12.890625 
Q 45.40625 18.265625 45.40625 27.984375 
z
M 54.390625 6.78125 
Q 54.390625 -7.171875 48.1875 -13.984375 
Q 42 -20.796875 29.203125 -20.796875 
Q 24.46875 -20.796875 20.265625 -20.09375 
Q 16.0625 -19.390625 12.109375 -17.921875 
L 12.109375 -9.1875 
Q 16.0625 -11.328125 19.921875 -12.34375 
Q 23.78125 -13.375 27.78125 -13.375 
Q 36.625 -13.375 41.015625 -8.765625 
Q 45.40625 -4.15625 45.40625 5.171875 
L 45.40625 9.625 
Q 42.625 4.78125 38.28125 2.390625 
Q 33.9375 0 27.875 0 
Q 17.828125 0 11.671875 7.65625 
Q 5.515625 15.328125 5.515625 27.984375 
Q 5.515625 40.671875 11.671875 48.328125 
Q 17.828125 56 27.875 56 
Q 33.9375 56 38.28125 53.609375 
Q 42.625 51.21875 45.40625 46.390625 
L 45.40625 54.6875 
L 54.390625 54.6875 
z
" id="DejaVuSans-103"/>
       <path d="M 32.171875 -5.078125 
Q 28.375 -14.84375 24.75 -17.8125 
Q 21.140625 -20.796875 15.09375 -20.796875 
L 7.90625 -20.796875 
L 7.90625 -13.28125 
L 13.1875 -13.28125 
Q 16.890625 -13.28125 18.9375 -11.515625 
Q 21 -9.765625 23.484375 -3.21875 
L 25.09375 0.875 
L 2.984375 54.6875 
L 12.5 54.6875 
L 29.59375 11.921875 
L 46.6875 54.6875 
L 56.203125 54.6875 
z
" id="DejaVuSans-121"/>
       <path d="M 9.078125 75.984375 
L 18.109375 75.984375 
L 18.109375 31.109375 
L 44.921875 54.6875 
L 56.390625 54.6875 
L 27.390625 29.109375 
L 57.625 0 
L 45.90625 0 
L 18.109375 26.703125 
L 18.109375 0 
L 9.078125 0 
z
" id="DejaVuSans-107"/>
       <path d="M -0.296875 72.90625 
L 61.375 72.90625 
L 61.375 64.59375 
L 35.5 64.59375 
L 35.5 0 
L 25.59375 0 
L 25.59375 64.59375 
L -0.296875 64.59375 
z
" id="DejaVuSans-84"/>
      </defs>
      <use xlink:href="#DejaVuSans-70"/>
      <use x="50.269531" xlink:href="#DejaVuSans-114"/>
      <use x="89.132812" xlink:href="#DejaVuSans-101"/>
      <use x="150.65625" xlink:href="#DejaVuSans-101"/>
      <use x="212.179688" xlink:href="#DejaVuSans-32"/>
      <use x="243.966797" xlink:href="#DejaVuSans-69"/>
      <use x="307.150391" xlink:href="#DejaVuSans-110"/>
      <use x="370.529297" xlink:href="#DejaVuSans-101"/>
      <use x="432.052734" xlink:href="#DejaVuSans-114"/>
      <use x="471.416016" xlink:href="#DejaVuSans-103"/>
      <use x="534.892578" xlink:href="#DejaVuSans-121"/>
      <use x="594.072266" xlink:href="#DejaVuSans-32"/>
      <use x="625.859375" xlink:href="#DejaVuSans-40"/>
      <use x="664.873047" xlink:href="#DejaVuSans-107"/>
      <use x="722.783203" xlink:href="#DejaVuSans-84"/>
      <use x="783.867188" xlink:href="#DejaVuSans-41"/>
     </g>
    </g>
   </g>
   <g id="patch_8">
    <path d="M 365.19 246.2 
L 365.19 235.180952 
L 365.19 25.819048 
L 365.19 14.8 
L 376.76 14.8 
L 376.76 25.819048 
L 376.76 235.180952 
L 376.76 246.2 
z
" style="fill:none;stroke:#000000;stroke-linejoin:miter;stroke-width:0.8;"/>
   </g>
  </g>
 </g>
 <defs>
  <clipPath id="p57cb41fa39">
   <rect height="231.4" width="298.72" x="47.8" y="14.8"/>
  </clipPath>
  <clipPath id="p53ae220333">
   <rect height="231.4" width="11.57" x="365.19" y="14.8"/>
  </clipPath>
 </defs>
</svg>
